<?xml version="1.0" encoding="utf-8"?>
<!-- Generator: Adobe Illustrator 16.0.0, SVG Export Plug-In . SVG Version: 6.00 Build 0)  -->
<!DOCTYPE svg PUBLIC "-//W3C//DTD SVG 1.1//EN" "http://www.w3.org/Graphics/SVG/1.1/DTD/svg11.dtd">
<svg version="1.1" id="Layer_1" xmlns="http://www.w3.org/2000/svg" xmlns:xlink="http://www.w3.org/1999/xlink" x="0px" y="0px"
	 width="50px" height="50px" viewBox="0 0 50 50" enable-background="new 0 0 50 50" xml:space="preserve">
<path fill-rule="evenodd" clip-rule="evenodd" fill="#FFFFFF" d="M0.584,24.732C0.675,10.835,12.438,0.212,25.861,0.667
	c12.88,0.435,23.745,11.064,23.552,24.754C49.224,38.845,38.15,49.509,24.46,49.346C11.615,49.193,0.656,38.698,0.584,24.732z
	 M48.361,26.34c0.006-1.321,0.005-1.318-0.514-1.619c-8.656-5.01-18.037-7.549-27.971-8.201c-1.473-0.097-1.76,0.23-1.664,1.712
	c0.17,2.632,1.213,4.941,2.624,7.113c1.908,2.937,4.205,5.546,6.76,7.931c3.592,3.354,7.436,6.396,11.44,9.239
	c0.625,0.442,1.149,0.422,1.678-0.133c0.51-0.533,1.061-1.029,1.562-1.572C46.046,36.719,48.162,31.931,48.361,26.34z
	 M25.025,48.455c4.531-0.06,8.696-1.267,12.519-3.67c1.643-1.033,1.637-1.396,0.052-2.529c-1.951-1.394-3.936-2.751-5.79-4.265
	c-4.116-3.356-7.996-6.969-11.065-11.35c-1.948-2.778-3.45-5.741-3.279-9.285c0.033-0.695-0.455-0.921-1.03-0.934
	c-0.868-0.021-1.74-0.012-2.606,0.048c-0.974,0.066-1.151,0.278-1.265,1.255c-0.08,0.68-0.155,1.361-0.243,2.04
	c-0.541,4.155-0.546,8.301,0.161,12.442c0.903,5.287,3.016,10.059,6.058,14.456c0.547,0.793,1.18,1.247,2.092,1.348
	C22.091,48.174,23.559,48.31,25.025,48.455z M48.354,22.608c0.025-0.005,0.054-0.011,0.082-0.017
	c-0.136-0.72-0.264-1.441-0.406-2.159c-1.062-5.345-3.753-9.735-7.829-13.301c-1.372-1.202-2.948-1.682-4.77-1.239
	c-0.532,0.129-1.092,0.138-1.639,0.213C30.113,6.616,26.55,7.49,23.338,9.457c-1.988,1.217-3.509,2.855-4.455,4.998
	c-0.399,0.906-0.218,1.185,0.765,1.28c1.52,0.147,3.044,0.273,4.561,0.451c6.695,0.783,13.128,2.51,19.229,5.402
	c1.355,0.643,2.669,1.373,4.02,2.03c0.652,0.318,0.858,0.171,0.895-0.535C48.359,22.925,48.354,22.766,48.354,22.608z M17.9,47.381
	c-0.037-0.223-0.033-0.253-0.046-0.272c-0.574-0.947-1.162-1.886-1.721-2.841c-3.73-6.377-5.234-13.288-4.869-20.623
	c0.099-1.995,0.405-3.98,0.625-5.971c0.091-0.817-0.134-1.083-0.95-1.025c-0.551,0.04-1.099,0.158-1.649,0.175
	c-0.483,0.014-0.632,0.22-0.775,0.676c-0.717,2.282-1.403,4.582-2.287,6.801c-1.023,2.571-2.118,5.105-2.632,7.849
	c-0.208,1.118-0.199,2.145,0.343,3.212c2.573,5.069,6.453,8.741,11.622,11.064C16.296,46.758,17.054,47.039,17.9,47.381z
	 M36.805,5.027c0.008-0.072,0.016-0.145,0.025-0.218c-0.354-0.211-0.698-0.442-1.062-0.633C31.216,1.8,26.363,1.221,21.336,1.862
	c-0.711,0.09-1.601,0.392-2.018,0.911c-2.575,3.206-4.581,6.745-5.763,10.714c-0.665,2.234-0.661,2.242,1.68,2.297
	c1.728,0.041,2.767-0.59,3.34-2.211c0.628-1.776,1.792-3.076,3.315-4.102c3.486-2.343,7.365-3.572,11.512-4.04
	C34.536,5.302,35.67,5.162,36.805,5.027z M18.298,2.732c-0.053-0.057-0.106-0.113-0.16-0.17c-0.435,0.162-0.872,0.318-1.304,0.487
	c-2.62,1.019-5.033,2.391-7.18,4.215C8.91,7.896,8.484,8.669,8.622,9.69c0.097,0.724,0.197,1.451,0.225,2.179
	c0.038,1.052,0.019,2.107,0.009,3.16c-0.005,0.687,0.342,0.996,1.002,1.058c1.271,0.121,2.388-0.631,2.728-1.884
	c1.08-3.983,2.82-7.634,5.402-10.87C18.125,3.159,18.196,2.933,18.298,2.732z M2.651,31.576c1.164-2.947,2.35-5.866,3.468-8.812
	c0.567-1.496,1.047-3.028,1.497-4.564c0.25-0.854,0.059-1.062-0.778-0.865c-1.225,0.287-2.425,0.679-3.632,1.037
	c-0.583,0.172-0.884,0.57-1.02,1.176c-0.504,2.271-0.777,4.551-0.583,6.887C1.75,28.222,2.099,29.948,2.651,31.576z M2.79,17.672
	c1.37-0.363,2.646-0.673,3.905-1.041c1.344-0.393,1.356-0.443,1.438-1.818c0.018-0.315,0.079-0.628,0.094-0.943
	c0.077-1.576,0.018-3.139-0.449-4.8C5.521,11.676,3.747,14.398,2.79,17.672z"/>
</svg>
