<?xml version="1.0" encoding="utf-8"?>
<!-- Generator: Adobe Illustrator 16.0.0, SVG Export Plug-In . SVG Version: 6.00 Build 0)  -->
<!DOCTYPE svg PUBLIC "-//W3C//DTD SVG 1.1//EN" "http://www.w3.org/Graphics/SVG/1.1/DTD/svg11.dtd">
<svg version="1.1" id="Layer_1" xmlns="http://www.w3.org/2000/svg" xmlns:xlink="http://www.w3.org/1999/xlink" x="0px" y="0px"
	 width="50px" height="50px" viewBox="0 0 50 50" enable-background="new 0 0 50 50" xml:space="preserve">
<path fill="#FFFFFF" d="M49.493,25.388c0,0.521,0,1.042,0,1.563c-0.724,2.521-2.006,4.708-3.965,6.459
	c-4.028,3.599-8.689,5.947-14.013,6.917c-1.583,0.289-3.185,0.466-4.778,0.694c-1.621,0-3.242,0-4.864,0
	c-0.189-0.052-0.376-0.116-0.568-0.151c-2.264-0.418-4.61-0.583-6.778-1.291C8.03,37.458,2.776,33.828,0.507,26.951
	c0-0.579,0-1.158,0-1.737c0.32-0.827,0.541-1.711,0.975-2.472c3.896-6.832,9.988-10.529,17.516-12.116
	c1.229-0.259,2.495-0.354,3.743-0.525c1.506,0,3.012,0,4.517,0c0.167,0.047,0.329,0.127,0.494,0.137
	c3.718,0.212,7.2,1.313,10.477,2.995C43.438,15.906,47.866,19.366,49.493,25.388z M11.673,19.761
	c0.552-0.342,1.058-0.613,1.507-0.958c0.141-0.107,0.126-0.414,0.184-0.629c-0.193-0.042-0.4-0.148-0.577-0.11
	c-0.45,0.095-0.911,0.201-1.315,0.407c-0.229,0.117-0.469,0.422-0.503,0.669c-0.114,0.828-0.166,1.667-0.195,2.504
	c-0.155,4.428-0.031,8.846,0.505,13.248c0.067,0.546,0.282,0.791,0.812,0.938c4.111,1.148,8.26,1.853,12.562,1.567
	c4.23-0.279,8.344-1.018,12.347-2.432c0.978-0.346,1.289-0.896,1.376-1.852c0.411-4.59,0.501-9.179,0.18-13.778
	c-0.052-0.758-0.257-1.154-1.087-1.345c-0.794-0.183-0.848,0.475-1.388,0.739c0.542,0.357,0.979,0.647,1.468,0.968
	c-1.761,1.159-3.584,1.155-5.488,0.827c-1.243-0.214-2.514-0.369-3.771-0.357c-2.34,0.019-4.679,0.266-7.018,0.251
	c-2.069-0.014-4.116-0.282-6.172,0.349C13.858,21.15,12.685,20.641,11.673,19.761z M12.021,16.488
	c-0.027-0.069-0.052-0.139-0.079-0.209c0.828-0.378,1.622-0.924,2.491-1.104c2.423-0.498,4.867-0.953,7.323-1.226
	c4.238-0.471,8.391,0.616,12.591,0.907c1.221,0.085,2.342,0.672,3.215,1.784c-0.307,0.027-0.502,0.027-0.689,0.065
	c-0.218,0.043-0.43,0.12-0.646,0.183c-0.024,0.096-0.05,0.192-0.074,0.289c0.694,0.277,1.389,0.554,2.315,0.923
	c-0.279-1.594-0.49-2.925-0.762-4.243c-0.046-0.222-0.321-0.463-0.55-0.571c-3.63-1.702-7.439-2.623-11.462-2.671
	c-4.598-0.055-9.042,0.606-13.203,2.676c-0.284,0.142-0.666,0.387-0.719,0.643c-0.297,1.401-0.505,2.821-0.753,4.286
	c2.189-0.449,2.189-0.449,2.487-1.403C13.006,16.706,12.514,16.597,12.021,16.488z M38.085,13.549
	c1.512,8.171,1.237,16.094,0.006,24.287c1.167-0.688,2.172-1.189,3.06-1.847c0.407-0.304,0.746-0.883,0.848-1.391
	c1.087-5.408,1.071-10.849,0.348-16.298c-0.101-0.761-0.074-1.773-0.539-2.206C40.775,15.132,39.47,14.463,38.085,13.549z
	 M11.093,37.896c0.078-0.056,0.156-0.111,0.235-0.168c-1.2-7.914-1.444-15.832,0.03-23.96c-1.158,0.746-2.081,1.385-3.05,1.948
	c-0.636,0.37-0.904,0.886-1.015,1.583c-0.938,5.903-0.957,11.797,0.176,17.678c0.071,0.364,0.277,0.809,0.564,1.009
	C9.018,36.672,10.068,37.266,11.093,37.896z M38.129,34.832c-8.839,3.245-17.639,3.948-26.59,1.105
	c0.011,1.997,0.087,2.111,1.768,2.737c2.642,0.985,5.382,1.534,8.186,1.729c5.338,0.369,10.559-0.182,15.545-2.245
	c0.308-0.127,0.635-0.505,0.716-0.826C37.947,36.559,38.001,35.75,38.129,34.832z M43.052,31.99c2.111-1.273,4.08-2.776,5.563-4.863
	c0.543-0.765,0.533-1.608,0.099-2.284c-1.404-2.181-3.383-3.731-5.662-4.833C43.052,24.018,43.052,27.983,43.052,31.99z
	 M6.555,33.467c-0.109-4.252-0.217-8.436-0.325-12.644c-1.62,0.997-3.108,2.24-4.466,3.674c-0.757,0.799-0.855,1.638-0.641,2.619
	C1.805,30.234,4.238,31.814,6.555,33.467z M12.19,19.854c1.119,0.754,2.294,0.906,3.499,0.539c1.245-0.379,2.478-0.396,3.764-0.312
	c1.728,0.112,3.477,0.16,5.202,0.031c2.858-0.212,5.68-0.474,8.518,0.304c1.276,0.35,2.575-0.015,3.794-0.691
	c-0.483-0.394-0.876-0.712-1.329-1.082c-0.025,0.292-0.044,0.512-0.063,0.731c-0.042,0.503-0.275,0.835-0.819,0.793
	c-0.562-0.043-0.679-0.451-0.681-0.929c-0.006-1.032-0.008-1.032-1.171-0.896c-0.207,0.476,0.17,1.369-0.799,1.346
	c-1.113-0.026-0.491-1.023-0.798-1.585c-0.429,0-0.874,0-1.379,0c-0.081,0.544,0.07,1.287-0.825,1.229
	c-0.924-0.059-0.509-0.865-0.71-1.372c-0.443,0-0.884,0-1.324,0c0.054,0.075,0.105,0.15,0.159,0.225
	c-0.323,0.316-0.622,0.865-0.975,0.902c-0.857,0.091-0.679-0.718-0.781-1.273c-0.401,0-0.783,0-1.164,0
	c0.055,0.068,0.11,0.138,0.165,0.207c-0.318,0.37-0.596,1.003-0.963,1.059c-0.886,0.135-0.682-0.761-0.816-1.255
	c-0.483,0-0.9,0-1.259,0c-0.381,0.541,0.127,1.647-0.971,1.472c-0.36-0.058-0.619-0.745-0.924-1.145
	c0.062-0.059,0.126-0.12,0.189-0.179c-0.417,0-0.833,0-1.21,0c-0.373,0.583,0.21,1.622-0.866,1.704
	c-1.154,0.087-0.582-1.017-0.906-1.533c-0.323,0.069-0.619,0.133-0.847,0.183c-0.309,0.667,0.336,1.743-0.803,1.818
	c-1.232,0.081-0.486-1.101-0.9-1.743C13.55,18.869,12.924,19.323,12.19,19.854z M36.781,16.375c0.023-0.103,0.048-0.207,0.073-0.31
	c-0.821-0.311-1.617-0.755-2.465-0.901c-1.506-0.258-3.041-0.342-4.563-0.486c-2.098-0.199-4.201-0.574-6.294-0.528
	c-2.326,0.052-4.646,0.473-6.962,0.773c-1.344,0.174-2.638,0.542-3.908,1.329c0.237,0.088,0.364,0.125,0.483,0.183
	c0.594,0.282,1.099,0.574,1.469-0.384c0.208-0.539,0.769-0.445,1.197,0.014c0.452,0.482,0.936,0.362,1.205-0.248
	c0.241-0.55,0.884-0.739,1.244-0.34c0.158,0.176,0.225,0.436,0.343,0.676c0.437-0.047,0.835-0.09,1.232-0.133
	c-0.047-0.064-0.095-0.127-0.144-0.19c0.307-0.299,0.626-0.846,0.919-0.833c0.347,0.015,0.673,0.514,1.007,0.804
	c-0.038,0.069-0.077,0.139-0.117,0.208c0.447-0.021,0.894-0.042,1.34-0.062c-0.059-0.092-0.119-0.183-0.181-0.275
	c0.324-0.346,0.649-0.693,0.973-1.041c0.313,0.361,0.626,0.722,0.94,1.083c-0.051,0.063-0.102,0.125-0.152,0.188
	c0.389,0,0.776,0,1.165,0c-0.055-0.073-0.108-0.146-0.162-0.219c0.328-0.344,0.655-0.688,0.983-1.033
	c0.311,0.367,0.62,0.732,0.93,1.099c-0.055,0.068-0.11,0.135-0.166,0.202c0.423,0,0.848,0,1.271,0
	c0.213-0.445,0.576-0.98,0.896-0.957c0.333,0.024,0.624,0.592,0.934,0.921c-0.056,0.071-0.108,0.142-0.162,0.213
	c0.425,0,0.848,0,1.274,0c0.228-0.376,0.593-0.835,0.884-0.792c0.349,0.052,0.636,0.532,0.947,0.826
	c-0.044,0.059-0.09,0.119-0.136,0.178c0.337,0.048,0.674,0.097,1.01,0.145c0.257-0.392,0.672-0.821,0.911-0.739
	c0.359,0.124,0.597,0.605,0.936,0.992C36.117,16.659,36.448,16.517,36.781,16.375z M48.594,27.653
	c-1.567,1.983-3.467,3.406-5.513,4.657c-0.136,0.083-0.307,0.221-0.335,0.359c-0.157,0.806-0.277,1.619-0.421,2.495
	C45.109,33.759,48.179,30.099,48.594,27.653z M6.965,16.959c-2.297,1.553-5.498,5.936-5.545,7.256
	c1.429-1.112,2.995-2.327,4.552-3.551c0.216-0.17,0.53-0.364,0.57-0.588C6.723,19.087,6.821,18.083,6.965,16.959z M42.443,16.406
	c0.121,0.946,0.153,1.729,0.341,2.472c0.098,0.384,0.411,0.774,0.731,1.031c1.429,1.147,2.898,2.248,4.351,3.369
	c0.091,0.069,0.149,0.176,0.232,0.256c0.08,0.079,0.172,0.146,0.447,0.375C47.218,20.69,45.05,18.505,42.443,16.406z M32.581,17.319
	c0.027,0,0.052,0,0.077,0c0-0.462,0.038-0.93-0.021-1.386c-0.019-0.157-0.264-0.356-0.438-0.398
	c-0.103-0.024-0.379,0.215-0.392,0.352c-0.086,1.007-0.147,2.019-0.159,3.03c0,0.179,0.277,0.362,0.425,0.543
	c0.171-0.165,0.465-0.314,0.486-0.497C32.623,18.422,32.581,17.868,32.581,17.319z M34.376,18.062c0,0.538-0.04,0.975,0.02,1.398
	c0.022,0.167,0.264,0.306,0.403,0.457c0.149-0.142,0.416-0.272,0.431-0.426c0.092-0.973,0.151-1.951,0.165-2.929
	c0.002-0.186-0.251-0.375-0.385-0.563c-0.17,0.178-0.45,0.333-0.49,0.538C34.414,17.068,34.413,17.621,34.376,18.062z
	 M15.621,17.751c0-0.5,0.041-0.908-0.021-1.302c-0.026-0.166-0.258-0.399-0.414-0.414c-0.132-0.013-0.405,0.234-0.419,0.384
	c-0.09,1.002-0.15,2.009-0.159,3.015c-0.001,0.164,0.301,0.331,0.461,0.496c0.14-0.156,0.375-0.297,0.402-0.47
	C15.563,18.865,15.581,18.259,15.621,17.751z M17.226,17.595c-0.018,0-0.038,0-0.057,0c0,0.434-0.041,0.873,0.018,1.299
	c0.029,0.202,0.248,0.378,0.381,0.566c0.161-0.163,0.443-0.313,0.462-0.49c0.097-0.919,0.159-1.844,0.152-2.767
	c-0.001-0.231-0.293-0.46-0.453-0.69c-0.167,0.231-0.436,0.445-0.481,0.698C17.169,16.659,17.226,17.132,17.226,17.595z
	 M25.899,16.958c-0.026,0-0.053,0-0.079,0c0,0.46-0.043,0.928,0.02,1.379c0.027,0.195,0.271,0.359,0.418,0.537
	c0.157-0.171,0.435-0.333,0.452-0.519c0.088-0.945,0.134-1.897,0.136-2.847c0-0.181-0.261-0.363-0.4-0.544
	c-0.184,0.175-0.49,0.329-0.521,0.528C25.847,15.969,25.899,16.468,25.899,16.958z M23.956,16.892c0.018,0,0.035,0,0.053,0
	c0.03-0.43,0.12-0.868,0.066-1.287c-0.03-0.237-0.297-0.443-0.458-0.664c-0.163,0.196-0.447,0.38-0.464,0.587
	c-0.076,0.916-0.097,1.838-0.082,2.757c0.003,0.183,0.253,0.36,0.389,0.54c0.166-0.185,0.441-0.352,0.475-0.557
	C24.007,17.82,23.956,17.352,23.956,16.892z M20.171,17.217c-0.032,0-0.062,0-0.093,0c0,0.462-0.037,0.928,0.017,1.385
	c0.021,0.179,0.24,0.335,0.369,0.501c0.175-0.15,0.489-0.287,0.504-0.451c0.091-0.978,0.135-1.962,0.135-2.944
	c0-0.182-0.275-0.363-0.424-0.544c-0.17,0.164-0.461,0.312-0.486,0.495C20.127,16.169,20.171,16.696,20.171,17.217z M29.648,17.104
	c0.026,0,0.053,0,0.082,0c0-0.462,0.04-0.93-0.02-1.385c-0.024-0.201-0.252-0.375-0.389-0.562c-0.164,0.162-0.455,0.311-0.473,0.486
	c-0.092,0.949-0.144,1.905-0.138,2.857c0,0.202,0.297,0.402,0.458,0.603c0.158-0.175,0.429-0.334,0.455-0.527
	C29.692,18.094,29.648,17.596,29.648,17.104z M3.562,31.657c-0.042,0.037-0.083,0.072-0.125,0.108
	c1.156,1.146,2.312,2.292,3.467,3.438c0.1-0.075,0.198-0.149,0.297-0.224c-0.205-0.406-0.31-0.937-0.631-1.195
	C5.613,33.019,4.571,32.359,3.562,31.657z M22.874,16.195c-0.601,0.03-1.039,0.053-1.461,0.074c0,0.474,0,0.856,0,1.209
	c0.477,0,0.887,0,1.341,0C22.794,17.054,22.827,16.698,22.874,16.195z M31.404,17.713c0-0.427,0-0.789,0-1.205
	c-0.473-0.037-0.906-0.07-1.406-0.108c0,0.507,0,0.891,0,1.313C30.467,17.713,30.888,17.713,31.404,17.713z M27.106,17.552
	c0.46,0,0.875,0,1.332,0c0-0.413,0-0.798,0-1.231c-0.459-0.029-0.87-0.055-1.332-0.084C27.106,16.71,27.106,17.078,27.106,17.552z
	 M18.463,16.406c0,0.5,0,0.887,0,1.323c0.49-0.072,0.912-0.133,1.355-0.198c0.018-0.404,0.035-0.765,0.051-1.125
	C19.375,16.406,18.952,16.406,18.463,16.406z M34.132,18.112c0-0.501,0-0.913,0-1.375c-0.418,0-0.777,0-1.178,0
	c-0.026,0.403-0.051,0.765-0.078,1.159C33.331,17.974,33.691,18.036,34.132,18.112z M24.339,17.463
	c0.389,0.024,0.767,0.047,1.18,0.073c0.04-0.486,0.073-0.869,0.108-1.294c-0.492,0-0.87,0-1.288,0
	C24.339,16.632,24.339,16.967,24.339,17.463z M15.861,17.862c1.145,0.101,1.245-0.031,1.019-1.261
	C15.853,16.565,15.852,16.567,15.861,17.862z M14.506,17.05c-0.146-0.061-0.292-0.121-0.438-0.182
	c-0.17,0.36-0.353,0.715-0.485,1.088c-0.01,0.026,0.351,0.184,0.539,0.28C14.251,17.84,14.379,17.445,14.506,17.05z M35.636,18.27
	c0.059,0.063,0.118,0.127,0.178,0.19c0.224-0.192,0.445-0.385,0.67-0.577c-0.223-0.249-0.444-0.499-0.666-0.749
	c-0.062,0.047-0.121,0.095-0.182,0.142C35.636,17.608,35.636,17.939,35.636,18.27z"/>
</svg>
