<?xml version="1.0" encoding="utf-8"?>
<!-- Generator: Adobe Illustrator 16.0.0, SVG Export Plug-In . SVG Version: 6.00 Build 0)  -->
<!DOCTYPE svg PUBLIC "-//W3C//DTD SVG 1.1//EN" "http://www.w3.org/Graphics/SVG/1.1/DTD/svg11.dtd">
<svg version="1.1" id="Layer_1" xmlns="http://www.w3.org/2000/svg" xmlns:xlink="http://www.w3.org/1999/xlink" x="0px" y="0px"
	 width="50px" height="50px" viewBox="0 0 50 50" enable-background="new 0 0 50 50" xml:space="preserve">
<g>
	<path fill-rule="evenodd" clip-rule="evenodd" fill="#FFFFFF" d="M0.085,24.595C0.296,10.213,12.058-0.53,25.995,0.021
		c13.562,0.536,24.034,11.453,23.913,24.793C49.775,39.525,37.502,50.085,23.66,49.342C10.47,48.634,0.147,37.983,0.085,24.595z
		 M3.458,24.687c-0.183,11.459,9.437,21.409,21.579,21.409c11.974-0.001,21.769-9.909,21.569-21.868
		C46.414,12.84,36.743,3.27,25.041,3.271C12.829,3.273,3.272,13.283,3.458,24.687z"/>
	<path fill-rule="evenodd" clip-rule="evenodd" fill="#FFFFFF" d="M24.948,39.399c-2.926,0-5.853,0.004-8.779-0.001
		c-1.217-0.004-1.641-0.408-1.646-1.586c-0.007-1.892-0.048-3.787,0.036-5.678c0.027-0.604,0.228-1.479,0.652-1.741
		c1.764-1.086,3.553-2.486,5.499-2.831c2.659-0.471,5.533-0.438,8.194,0.045c2.042,0.37,3.932,1.709,5.812,2.755
		c0.419,0.233,0.711,1.034,0.734,1.587c0.086,2.028,0.048,4.062,0.028,6.093c-0.008,0.976-0.473,1.35-1.646,1.354
		C30.871,39.406,27.909,39.399,24.948,39.399z"/>
	<path fill-rule="evenodd" clip-rule="evenodd" fill="#FFFFFF" d="M24.478,25.398c-2.7-0.002-4.85-1.639-6.078-4.976
		c-1.541-4.186-0.588-7.932,2.603-9.963c2.396-1.524,4.931-1.635,7.441-0.335c2.533,1.312,3.894,3.529,3.903,6.335
		c0.006,2.354-0.707,4.621-2.194,6.518C28.845,24.644,27.067,25.437,24.478,25.398z"/>
</g>
</svg>
