<?xml version="1.0" encoding="utf-8"?>
<!-- Generator: Adobe Illustrator 16.0.0, SVG Export Plug-In . SVG Version: 6.00 Build 0)  -->
<!DOCTYPE svg PUBLIC "-//W3C//DTD SVG 1.1//EN" "http://www.w3.org/Graphics/SVG/1.1/DTD/svg11.dtd">
<svg version="1.1" id="Layer_1" xmlns="http://www.w3.org/2000/svg" xmlns:xlink="http://www.w3.org/1999/xlink" x="0px" y="0px"
	 width="50px" height="50px" viewBox="0 0 50 50" enable-background="new 0 0 50 50" xml:space="preserve">
<path fill="#FFFFFF" d="M22.394,0.537c1.812,0,3.623,0,5.436,0c1.397,0.338,2.81,0.627,4.19,1.025
	c3.138,0.903,6.28,1.822,8.371,4.635c0.121,0.164,0.347,0.255,0.532,0.368c1.709,1.037,3.178,2.384,4.002,4.183
	c1.29,2.817,2.637,5.659,3.459,8.628c3.472,12.521-2.727,22.55-13.207,27.973c-3.213,1.661-6.815,1.817-10.379,1.896
	c-0.44,0.011-0.878,0.142-1.317,0.218c-0.436,0-0.87,0-1.305,0c-0.369-0.114-0.732-0.282-1.11-0.336
	c-4.793-0.68-8.926-2.934-12.632-5.826c-3.206-2.501-5.335-5.952-6.427-9.925c-0.55-2.003-0.911-4.061-1.357-6.093
	c0-1.45,0-2.898,0-4.349c0.058-0.17,0.147-0.336,0.167-0.511c0.719-6.375,3.815-11.47,8.575-15.595
	c3.07-2.661,6.336-5.072,10.441-5.946C20.671,0.703,21.539,0.649,22.394,0.537z M46.579,28.579
	c-0.399-0.737-0.622-1.394-1.042-1.881c-2.077-2.421-4.616-4.277-7.418-5.77c-6.538-3.488-13.613-5.195-20.9-6.144
	c-0.265-0.035-0.741,0.274-0.851,0.536c-0.503,1.196-0.89,2.44-1.359,3.651c-0.375,0.965-0.039,1.466,0.867,1.924
	c6.229,3.15,12.413,6.394,18.651,9.523c2.713,1.36,5.534,2.503,8.291,3.775c0.812,0.373,1.452,0.225,1.788-0.562
	C45.305,31.985,45.915,30.299,46.579,28.579z M14.645,21.728c0,2.585,0.059,4.969-0.021,7.347c-0.052,1.549,0.696,2.267,2.045,2.819
	c6.996,2.86,13.968,5.781,20.93,8.723c1.001,0.424,1.765,0.148,2.49-0.456c1.418-1.179,2.357-2.704,3.114-4.374
	C33.487,31.665,24.243,26.724,14.645,21.728z M17.311,13.138C28.19,15.18,38.5,17.609,46.695,25.843
	c-0.147-1.736-0.266-3.136-0.388-4.535c-0.292-3.391-1.687-6.07-4.605-8.042c-5.682-3.837-12.066-5.44-18.727-6.28
	c-0.264-0.033-0.655,0.145-0.833,0.355C20.512,9.258,18.917,11.202,17.311,13.138z M7.473,34.752
	c1.377-0.795,2.463-1.363,3.488-2.025c2.375-1.532,2.236-1.552,2.275-4.397c0.045-3.242-0.063-6.572,0.63-9.701
	c1.082-4.886,3.67-9.089,7.511-12.426c0.229-0.2,0.59-0.566,0.533-0.726c-0.349-0.964-0.73-1.935-1.268-2.799
	c-0.148-0.237-1.024-0.329-1.306-0.126c-2.194,1.583-4.538,3.04-6.433,4.938C7.556,12.844,5.6,19.525,6.163,26.952
	C6.355,29.485,6.994,31.984,7.473,34.752z M23.354,36.261c-0.214-0.137-0.324-0.228-0.45-0.284c-2.803-1.246-5.603-2.501-8.422-3.71
	c-0.233-0.099-0.65,0.056-0.908,0.215c-1.661,1.018-3.271,2.124-4.96,3.092C7.51,36.206,6.3,36.654,5.084,37.21
	c1.229,2.071,2.651,3.856,4.412,5.407c1.754,1.544,3.574,1.593,5.604,0.703C18.531,41.816,20.939,39.143,23.354,36.261z
	 M30.864,39.395c-1.525-0.67-2.711-1.197-3.901-1.715c-2.242-0.973-2.248-0.974-3.861,0.871c-2.04,2.332-4.244,4.463-7.109,5.777
	c-0.662,0.304-1.347,0.559-2.166,0.896c2.324,1.293,4.597,2.202,7.067,2.507c0.5,0.062,1.167-0.079,1.547-0.387
	c1.831-1.475,3.634-2.993,5.358-4.59C28.847,41.785,29.734,40.646,30.864,39.395z M11.194,7.141
	c-3.766,2.905-6.612,6.508-8.135,11.058c-1.892,5.653-1.195,11.193,0.807,16.674c0.304,0.835,0.662,1.036,1.506,0.777
	c0.88-0.271,0.727-0.731,0.549-1.395c-1.305-4.895-1.633-9.849-0.684-14.84C6.115,14.804,8.134,10.727,11.194,7.141z M38.168,42.252
	c-1.891-0.77-3.651-1.513-5.443-2.185c-0.244-0.092-0.719,0.09-0.933,0.302c-1.72,1.703-3.384,3.464-5.109,5.165
	c-0.806,0.795-1.708,1.491-2.567,2.232c1.625,0.133,3.198,0.2,4.697-0.101c2.146-0.432,4.292-0.987,6.331-1.763
	C36.688,45.316,37.823,44.102,38.168,42.252z M32.53,7.235c-0.188-1.851-0.94-3.321-1.973-4.672
	c-0.098-0.127-0.308-0.196-0.479-0.237c-2.587-0.618-5.197-0.549-7.771-0.376c-0.056,0.154-0.084,0.19-0.076,0.215
	c0.346,1.021,0.415,2.369,1.119,2.972c0.73,0.625,2.082,0.514,3.154,0.749C28.464,6.314,30.419,6.761,32.53,7.235z M32.993,3.18
	c0.296,1.375,0.584,2.748,0.893,4.117c0.033,0.152,0.136,0.352,0.264,0.411c1.615,0.757,3.24,1.494,4.938,2.27
	C39.14,9.215,39.271,8.595,39.197,8c-0.079-0.634-0.172-1.416-0.572-1.836C37.043,4.495,34.913,3.803,32.993,3.18z M39.157,43
	c0.139,0.092,0.279,0.183,0.418,0.273c6.435-5.357,9.58-12.067,8.36-20.561c-0.067,0.666-0.031,1.351-0.073,2.033
	c-0.149,2.444-0.047,4.968-1.09,7.232c-1.007,2.185-2.198,4.299-3.504,6.319c-0.786,1.218-1.952,2.188-2.935,3.282
	C39.925,42.037,39.549,42.526,39.157,43z M40.764,8.01c-0.114,0.029-0.23,0.058-0.347,0.087c0,0.749-0.024,1.499,0.015,2.245
	c0.013,0.256,0.118,0.599,0.304,0.739c1.42,1.075,2.87,2.11,4.416,3.234C44.269,11.721,42.967,9.551,40.764,8.01z"/>
</svg>
